<svg width="250" height="167" viewBox="0 0 250 167" fill="none" xmlns="http://www.w3.org/2000/svg">
<g clip-path="url(#clip0_2455_90231)">
<path d="M214.286 113.628C211.533 102.406 185.518 86.0185 171.616 95.8986C167.349 74.521 163.357 61.19 149.415 50.6589C135.474 40.1278 112.212 53.893 108.476 82.725C104.74 70.8727 85.7447 54.8988 70.4857 68.3682C56.3671 80.8318 54.9512 101.716 56.4263 113.608H214.286V113.628Z" fill="#F2F5FF"/>
<path d="M195.403 93.7832C195.143 92.3151 194.986 90.8305 194.933 89.3403C194.833 86.383 195.167 82.8688 196.777 80.2951C198.453 77.6218 200.516 75.584 202.469 74.4378C204.454 73.2733 206.152 73.1139 207.269 73.8174L207.27 73.8177C208.387 74.5191 208.983 76.1208 208.799 78.4183C208.619 80.6801 207.686 83.4286 206.013 86.1022C204.384 88.7048 201.586 90.6917 199.136 92.0396C198.118 92.598 197.071 93.1005 195.999 93.5448C195.775 93.6373 195.575 93.7166 195.403 93.7832ZM179.245 83.1623L179.246 83.162C180.474 82.6838 182.112 83.1616 183.842 84.68C185.545 86.1744 187.188 88.5644 188.329 91.5047C189.44 94.3676 189.361 97.8014 188.976 100.576C188.816 101.727 188.593 102.868 188.309 103.995C188.256 104.203 188.201 104.41 188.144 104.616C187.918 104.503 187.694 104.388 187.471 104.27C186.38 103.69 185.323 103.047 184.306 102.344C181.879 100.66 179.265 98.2943 178.167 95.4616C177.026 92.5187 176.627 89.644 176.875 87.3897C177.128 85.1001 178.015 83.6404 179.245 83.1623ZM180.995 123.419L180.996 123.416C181.25 122.218 181.432 121.006 181.541 119.786L181.541 119.784C181.777 117.175 181.675 114.157 180.634 111.614C179.438 108.695 177.751 106.336 176.02 104.874C174.262 103.389 172.615 102.944 171.396 103.446L171.395 103.446C170.177 103.946 169.317 105.423 169.107 107.719C168.9 109.978 169.352 112.845 170.548 115.764L180.995 123.419ZM180.995 123.419C180.905 123.857 180.804 124.294 180.693 124.728L180.995 123.419ZM180.995 123.419L180.693 124.728L180.995 123.419ZM180.693 124.728L180.578 124.674C179.482 124.145 177.436 123.071 175.425 121.538C173.404 119.997 171.481 118.039 170.548 115.764L180.693 124.728ZM189.846 104.051C189.984 103.888 190.149 103.694 190.342 103.478C191.163 102.553 192.037 101.676 192.96 100.853C195.169 98.8882 198.083 96.9042 201.088 96.5064C204.21 96.0932 207.091 96.3857 209.219 97.1616C211.379 97.95 212.586 99.1588 212.76 100.469C212.934 101.78 212.083 103.262 210.2 104.586C208.348 105.89 205.641 106.922 202.519 107.336C199.479 107.738 196.167 106.847 193.567 105.817C192.29 105.31 191.047 104.72 189.846 104.051ZM194.656 125.633C191.676 126.35 188.29 125.81 185.598 125.056C184.481 124.742 183.382 124.368 182.306 123.934C182.108 123.854 181.911 123.772 181.714 123.687C181.834 123.51 181.979 123.301 182.148 123.065C182.868 122.06 183.647 121.097 184.479 120.181C186.472 117.997 189.164 115.72 192.111 115.01C195.172 114.273 198.069 114.263 200.265 114.813C202.497 115.371 203.822 116.448 204.13 117.734C204.439 119.02 203.746 120.583 202.012 122.096C200.305 123.586 197.72 124.896 194.656 125.633Z" fill="white"/>
<path d="M180.995 123.419C180.905 123.857 180.804 124.294 180.693 124.728M180.995 123.419L180.693 124.728M195.403 93.7832C195.143 92.3151 194.986 90.8305 194.933 89.3403C194.833 86.383 195.167 82.8688 196.777 80.2951C198.453 77.6218 200.516 75.584 202.469 74.4378C204.454 73.2733 206.152 73.1139 207.269 73.8174L207.27 73.8177C208.387 74.5191 208.983 76.1208 208.799 78.4183C208.619 80.6801 207.686 83.4286 206.013 86.1022C204.384 88.7048 201.586 90.6917 199.136 92.0396C198.118 92.598 197.071 93.1005 195.999 93.5448C195.775 93.6373 195.575 93.7166 195.403 93.7832V93.7832ZM179.245 83.1623L179.246 83.1619C180.474 82.6838 182.112 83.1616 183.842 84.68C185.545 86.1744 187.188 88.5644 188.329 91.5047C189.44 94.3676 189.361 97.8014 188.976 100.576C188.816 101.727 188.593 102.868 188.309 103.995C188.256 104.203 188.201 104.41 188.144 104.616C187.918 104.503 187.694 104.388 187.471 104.27C186.38 103.69 185.323 103.047 184.306 102.344C181.879 100.66 179.265 98.2943 178.167 95.4616C177.026 92.5187 176.627 89.644 176.875 87.3897C177.128 85.1001 178.015 83.6404 179.245 83.1623V83.1623ZM180.995 123.419L180.996 123.416C181.25 122.218 181.432 121.006 181.541 119.786L181.541 119.784C181.777 117.175 181.675 114.157 180.634 111.614C179.438 108.695 177.751 106.336 176.02 104.874C174.262 103.389 172.615 102.944 171.396 103.446L171.395 103.446C170.177 103.946 169.317 105.423 169.107 107.719C168.9 109.978 169.352 112.845 170.548 115.764L180.995 123.419V123.419ZM180.693 124.728L180.578 124.674C179.482 124.145 177.436 123.071 175.425 121.538C173.404 119.997 171.481 118.039 170.548 115.764L180.693 124.728V124.728ZM189.846 104.051C189.984 103.888 190.149 103.694 190.342 103.478C191.163 102.553 192.037 101.676 192.96 100.853C195.169 98.8882 198.083 96.9042 201.088 96.5064C204.21 96.0932 207.091 96.3857 209.219 97.1616C211.379 97.95 212.586 99.1588 212.76 100.469C212.934 101.78 212.083 103.262 210.2 104.586C208.348 105.89 205.641 106.922 202.519 107.336C199.479 107.738 196.167 106.847 193.567 105.817C192.29 105.31 191.047 104.72 189.846 104.051V104.051ZM194.656 125.633C191.676 126.35 188.29 125.81 185.598 125.056C184.481 124.742 183.382 124.368 182.306 123.934C182.108 123.854 181.911 123.772 181.714 123.687C181.834 123.51 181.979 123.301 182.148 123.065C182.868 122.06 183.647 121.097 184.479 120.181C186.472 117.997 189.164 115.72 192.111 115.01C195.172 114.273 198.069 114.263 200.265 114.813C202.497 115.371 203.822 116.448 204.13 117.734C204.439 119.02 203.746 120.583 202.012 122.096C200.305 123.586 197.72 124.896 194.656 125.633V125.633Z" stroke="#B4C4FF" stroke-width="1.30913"/>
<path d="M183.059 120.847C182.559 122.238 182.071 123.634 181.594 125.033L181.28 124.994L181.272 124.991L181.105 124.915C181.682 123.217 182.25 121.602 182.808 120.063L182.809 120.062C189.288 102.128 194.231 94.4363 195.628 92.4523L196.026 92.7714C194.603 94.8144 189.545 102.791 183.059 120.847ZM68.6699 85.7099C68.7841 85.3524 68.9327 84.8687 69.0973 84.2817C69.5912 82.5199 69.9825 80.7308 70.269 78.9235C70.9445 74.6151 71.096 69.3579 69.1677 65.2337C67.186 61.0024 64.5144 57.621 61.8254 55.5651C59.108 53.4873 56.5349 52.8698 54.6252 53.768L54.6245 53.7684C52.7155 54.6636 51.5431 57.0415 51.3988 60.4645C51.2558 63.8518 52.1401 68.073 54.1185 72.3041C56.0616 76.4594 59.8349 79.8929 63.1807 82.3069C64.5731 83.3094 66.0191 84.235 67.5123 85.0796C67.9767 85.3422 68.3694 85.5531 68.6699 85.7099ZM94.8398 74.3773L94.8395 74.377C92.9828 73.3787 90.3793 73.8562 87.5528 75.7828C84.7562 77.6895 81.9052 80.919 79.6997 85.0346C77.5334 89.0765 77.0376 94.1579 77.103 98.2876C77.1354 100.343 77.3066 102.141 77.4692 103.424C77.5363 103.954 77.6021 104.396 77.6561 104.731C78.0102 104.61 78.4861 104.44 79.0543 104.222C80.7596 103.569 82.4253 102.816 84.0431 101.968C87.8949 99.9404 92.194 96.9247 94.344 92.9101C96.5499 88.7912 97.6616 84.625 97.7016 81.2365C97.7422 77.8125 96.6994 75.3756 94.8398 74.3773ZM84.6629 133.023L84.6632 133.026C84.7464 134.026 84.8465 134.832 84.9215 135.369C85.076 135.319 85.253 135.262 85.4514 135.195C87.1529 134.618 90.3475 133.411 93.5755 131.522C96.8156 129.626 100.022 127.084 101.825 123.865C104.108 119.792 105.296 115.647 105.399 112.258C105.503 108.833 104.506 106.376 102.669 105.344L102.668 105.344C100.831 104.31 98.2197 104.737 95.3576 106.609C92.5259 108.462 89.6144 111.638 87.3319 115.712C85.3273 119.294 84.6377 123.731 84.5153 127.597V127.598C84.4446 129.67 84.5346 131.556 84.6629 133.023ZM76.1876 105.297C75.9203 104.879 75.6454 104.465 75.3628 104.056C74.3243 102.551 73.1991 101.107 71.9928 99.7328C69.1127 96.4623 65.1689 92.9914 60.7693 91.8502C56.2554 90.6794 51.9536 90.5847 48.6581 91.3481C45.328 92.1197 43.2102 93.7112 42.68 95.7553C42.1498 97.8022 43.2295 100.225 45.7673 102.52C48.2785 104.79 52.0868 106.8 56.6007 107.97C61.0337 109.12 66.0801 108.4 70.0703 107.359C71.7292 106.925 73.3632 106.4 74.9652 105.788C75.3753 105.631 75.7828 105.467 76.1876 105.297ZM65.1182 136.009C69.4069 137.616 74.4991 137.426 78.5748 136.806C80.2694 136.547 81.9487 136.196 83.6051 135.753C84.1203 135.615 84.548 135.491 84.8721 135.392C84.6495 134.948 84.4189 134.508 84.1805 134.072C83.3041 132.466 82.3348 130.913 81.2778 129.421C78.7532 125.868 75.192 122.004 70.936 120.41C66.5694 118.774 62.3 118.23 58.9424 118.645C55.5494 119.065 53.2778 120.428 52.5394 122.408C51.801 124.389 52.6229 126.911 54.9083 129.457C57.1698 131.978 60.7483 134.373 65.1182 136.009Z" fill="white" stroke="#B4C4FF" stroke-width="1.30913"/>
<path d="M107.704 134.944H138.442M148.189 134.944H161.309M107.704 143.089H116.552M124.572 143.208H161.309" stroke="#B4C4FF" stroke-width="1.30913" stroke-miterlimit="10" stroke-linecap="round" stroke-linejoin="round"/>
<path d="M42.1461 119.787C42.1877 119.917 42.1494 120.06 42.0486 120.153L38.5912 123.312C38.5477 123.352 38.495 123.38 38.4378 123.394C38.3807 123.408 38.3209 123.407 38.2641 123.392C38.2073 123.377 38.1552 123.348 38.1126 123.307C38.0701 123.266 38.0385 123.215 38.0207 123.159L36.6032 118.691C36.583 118.627 36.5816 118.558 36.599 118.493C36.6164 118.428 36.6519 118.37 36.7014 118.325L40.1582 115.166C40.2017 115.127 40.2544 115.098 40.3115 115.085C40.3687 115.071 40.4284 115.071 40.4852 115.087C40.542 115.102 40.594 115.131 40.6366 115.172C40.6791 115.213 40.7108 115.263 40.7286 115.319L42.1461 119.787V119.787Z" stroke="#B4C4FF" stroke-width="1.12455" stroke-miterlimit="10"/>
<path d="M67.2422 85.3121C67.3204 85.4295 74.196 96.9815 81.4823 129.097C82.0398 131.556 82.5742 134.021 83.0853 136.49L83.2418 136.457L84.3889 136.215V136.209H84.3954L84.4409 136.202C84.5843 136.157 85.0147 136.026 85.6597 135.811C85.0901 133.057 84.4905 130.31 83.861 127.569C76.5616 95.669 69.8097 84.4106 69.5099 83.9079L67.2422 85.3121Z" fill="#B4C4FF"/>
<path fill-rule="evenodd" clip-rule="evenodd" d="M174.804 80.1048C174.804 102.924 156.343 121.422 133.569 121.422C110.795 121.422 92.334 102.924 92.334 80.1048C92.334 57.2852 110.795 38.7872 133.569 38.7872C156.343 38.7872 174.804 57.2852 174.804 80.1048Z" fill="white" stroke="#4A72FF" stroke-width="9.18423" stroke-linecap="round" stroke-linejoin="round"/>
<path d="M183.801 130.437L166.182 112.783" stroke="#4A72FF" stroke-width="9.18423" stroke-linecap="round" stroke-linejoin="round"/>
<path d="M36.6616 74.3428C36.9321 74.6204 37.2148 74.8856 37.509 75.1378" stroke="#B4C4FF" stroke-width="0.37474" stroke-miterlimit="10"/>
<path d="M71.9119 48.29C71.9118 48.6062 71.8496 48.9193 71.7287 49.2114C71.6078 49.5035 71.4306 49.7689 71.2073 49.9924C70.984 50.2159 70.7189 50.3931 70.4272 50.5139C70.1356 50.6347 69.823 50.6967 69.5074 50.6964C68.1789 50.6964 67.1084 49.6145 67.1084 48.29C67.1085 47.9737 67.1708 47.6606 67.2917 47.3685C67.4126 47.0764 67.5897 46.811 67.813 46.5875C68.0363 46.364 68.3014 46.1868 68.5931 46.066C68.8848 45.9453 69.1973 45.8832 69.5129 45.8835C69.8283 45.8834 70.1405 45.9455 70.4318 46.0664C70.7231 46.1873 70.9878 46.3646 71.2106 46.5881C71.4334 46.8117 71.6101 47.077 71.7304 47.3691C71.8508 47.6611 71.9124 47.974 71.9119 48.29Z" stroke="#B4C4FF" stroke-width="2.0681" stroke-miterlimit="10"/>
<path d="M45.4369 42.0918C31.1621 45.7998 28.0513 64.9058 36.253 73.9162" stroke="#B4C4FF" stroke-width="0.37474" stroke-miterlimit="10" stroke-dasharray="1.56 1.56"/>
<path d="M37.5908 71.8489C39.4016 71.9368 40.8024 73.4739 40.7143 75.2883C40.6319 77.1002 39.0927 78.5064 37.2821 78.4182C35.4713 78.3303 34.0705 76.7932 34.1582 74.9788C34.2436 73.1594 35.7799 71.7607 37.5908 71.8489Z" fill="#B4C4FF"/>
<path d="M190.931 62.1436C190.906 62.2062 190.865 62.2604 190.811 62.3C190.756 62.3395 190.692 62.3626 190.625 62.3666L185.027 62.7007C184.968 62.7043 184.91 62.693 184.856 62.6678C184.803 62.6427 184.757 62.6045 184.722 62.5569C184.688 62.5092 184.666 62.4536 184.658 62.3951C184.651 62.3366 184.658 62.2772 184.679 62.2223L186.719 56.9881C186.769 56.8602 186.888 56.7733 187.025 56.7651L192.622 56.4319C192.68 56.4284 192.739 56.4398 192.792 56.465C192.845 56.4901 192.891 56.5283 192.926 56.5759C192.96 56.6236 192.983 56.6792 192.99 56.7376C192.998 56.796 192.99 56.8554 192.969 56.9103L190.931 62.1436Z" stroke="#B4C4FF" stroke-width="1.35757" stroke-miterlimit="10"/>
<path d="M211.493 35.7028C211.709 35.3812 211.94 35.0693 212.184 34.7681" stroke="#B4C4FF" stroke-width="0.37474" stroke-miterlimit="10"/>
<path d="M175.785 40.2242L175.938 40.0415V34.5102C175.938 28.8064 180.552 24.1795 186.248 24.1795H190.544C196.237 24.1795 200.854 28.8064 200.854 34.5102C200.854 40.2144 196.237 44.8412 190.544 44.8412H171.919L175.785 40.2242Z" fill="white" stroke="#B4C4FF" stroke-width="1.30913"/>
<path d="M183.078 34.4915C183.078 34.8356 182.942 35.1654 182.699 35.4087C182.456 35.6519 182.127 35.7887 181.784 35.7889C181.44 35.7886 181.111 35.6518 180.868 35.4086C180.626 35.1654 180.489 34.8355 180.489 34.4915C180.489 34.1475 180.626 33.8177 180.868 33.5745C181.111 33.3312 181.44 33.1945 181.784 33.1942C182.127 33.1944 182.456 33.3311 182.699 33.5744C182.942 33.8176 183.078 34.1475 183.078 34.4915ZM189.702 34.4915C189.702 34.8356 189.565 35.1654 189.323 35.4087C189.08 35.6519 188.751 35.7887 188.407 35.7889C188.064 35.7887 187.735 35.6519 187.492 35.4087C187.249 35.1654 187.113 34.8356 187.113 34.4915C187.113 34.1475 187.249 33.8176 187.492 33.5744C187.735 33.3311 188.064 33.1944 188.407 33.1942C188.751 33.1944 189.08 33.3311 189.323 33.5744C189.565 33.8176 189.702 34.1475 189.702 34.4915ZM196.326 34.4915C196.326 34.8356 196.189 35.1654 195.947 35.4087C195.704 35.6519 195.375 35.7887 195.031 35.7889C194.688 35.7887 194.359 35.6519 194.116 35.4087C193.873 35.1654 193.737 34.8356 193.737 34.4915C193.737 34.1475 193.873 33.8176 194.116 33.5744C194.359 33.3311 194.688 33.1944 195.031 33.1942C195.375 33.1944 195.704 33.3311 195.947 33.5744C196.189 33.8176 196.326 34.1475 196.326 34.4915Z" fill="#B4C4FF" stroke="#B4C4FF" stroke-width="1.30913"/>
<path d="M83.6572 43.1259C84.7307 28.3887 102.928 21.887 113.249 28.3509" stroke="#B4C4FF" stroke-width="0.37474" stroke-miterlimit="10" stroke-dasharray="1.56 1.56"/>
<path d="M95.4159 45.5954C93.3135 44.5706 92.3571 42.0727 93.2748 40.0207C94.1922 37.9688 96.6446 37.1408 98.7519 38.1702" fill="#B4C4FF"/>
<path d="M111.46 30.0415C111.872 31.8107 113.633 32.9149 115.398 32.502C117.162 32.0947 118.266 30.3251 117.854 28.5559C117.441 26.787 115.681 25.6825 113.915 26.0954C112.144 26.507 111.048 28.2726 111.46 30.0415Z" fill="#B4C4FF"/>
<path d="M148.924 28.3197C147.85 29.8533 145.738 30.2236 144.207 29.1469C142.677 28.0702 142.307 25.9541 143.382 24.4205C144.457 22.8869 146.568 22.5166 148.099 23.5933C149.629 24.6701 149.999 26.7861 148.924 28.3197Z" fill="#B4C4FF"/>
<path d="M134.566 19.8956C143.815 11.4339 158.827 18.0684 161.427 28.0925" stroke="#B4C4FF" stroke-width="0.37474" stroke-miterlimit="10" stroke-dasharray="1.56 1.56"/>
<path d="M159.339 28.0889C158.562 29.421 159.004 31.1322 160.334 31.9104C161.659 32.6909 163.371 32.2449 164.148 30.9128C164.924 29.5807 164.482 27.8695 163.152 27.0913C162.837 26.9053 162.487 26.7835 162.125 26.733C161.762 26.6825 161.393 26.7042 161.039 26.7968C160.684 26.8895 160.352 27.0513 160.06 27.2731C159.768 27.4948 159.523 27.772 159.339 28.0889Z" fill="#B4C4FF"/>
</g>
<defs>
<clipPath id="clip0_2455_90231">
<rect width="250" height="167" fill="white"/>
</clipPath>
</defs>
</svg>
