<svg width="48.000000" height="48.000000" viewBox="0 0 48 48" fill="none" xmlns="http://www.w3.org/2000/svg" xmlns:xlink="http://www.w3.org/1999/xlink">
	<desc>
			Created with Pixso.
	</desc>
	<defs>
		<clipPath id="clip101_119">
			<rect id="Кредит Урал Банк" rx="10.000000" width="48.000000" height="48.000000" fill="white" fill-opacity="0"/>
		</clipPath>
	</defs>
	<rect id="Кредит Урал Банк" rx="10.000000" width="48.000000" height="48.000000" fill="#F2F2F2" fill-opacity="1.000000"/>
	<g clip-path="url(#clip101_119)">
		<path id="path" d="M6 23.98C6 33.9 14.08 42 23.98 42C33.9 42 42 33.9 42 23.98C42 14.05 33.9 6 23.98 6C14.08 6 6 14.05 6 23.98ZM11.6 19.06C16.2 16.04 21.3 14.27 29.92 15.77C30.39 15.49 30.64 15.24 30.76 14.68C28.62 13.9 26.28 13.62 23.26 13.68C20.56 13.74 15.67 14.77 13.06 16.29L13.87 15.3C15.67 14.24 20.43 12.81 23.98 12.75C26.5 12.68 27.81 12.84 30.79 13.65C30.54 13.12 29.92 12.87 29.02 12.47C26.13 11.16 20.71 11.07 16.29 13C16.85 12.62 17.41 12.28 18.13 11.97C19.59 11.32 21.96 10.66 24.94 10.69C27.34 10.76 30.17 11.56 31.91 13.31C32.19 13.65 32.35 13.99 32.44 14.27C33.81 14.99 34.59 15.64 35.06 16.39C35.24 16.79 35.31 17.23 35.21 17.69C35.8 18.04 36.08 18.32 36.36 18.72C36.55 19.03 36.71 19.37 36.74 19.72C36.8 20.15 36.86 20.62 36.39 21.18C36.86 21.43 37.23 22.05 37.3 22.36C37.51 23.39 36.86 24.38 35.96 25.19C34.96 26.06 32.72 27.12 30.92 27.59C27.31 28.49 24.13 28.86 21.58 29.33C22.73 29.61 24.26 29.98 26.81 29.98C32.16 29.98 36.92 27.43 36.92 27.43C36.92 27.43 36.83 27.78 36.71 28.06C33.31 30.11 27.87 31.01 25.54 30.89C23.2 30.79 21.21 30.42 19.28 29.83C18.66 29.98 18.1 30.17 17.51 30.42C20.46 31.76 22.7 32.07 25.22 32.26C27.81 32.44 32.07 31.82 35.68 30.51C35.49 30.7 35.43 30.95 35.24 31.11C33.41 32.07 29.52 33.03 27.56 33.13C25.6 33.19 23.23 33.13 21.18 32.72C19.37 32.38 17.94 31.82 16.42 31.17C16.14 31.35 16.01 31.63 15.95 31.91C21.86 35.02 27.43 35.09 33.75 33.13L33.16 33.69C26.22 36.49 20.77 35.4 16.57 33.38C16.45 33.31 16.26 33.25 16.14 33.16C16.54 33.84 19.75 36.18 23.33 36.49C25.81 36.71 28.83 36.27 30.64 35.55L29.58 36.08C28.71 36.52 26.41 37.48 23.2 37.26C18.91 36.99 16.48 35.09 15.42 34.09C14.93 33.63 14.68 33.1 14.52 32.44C13.56 31.95 12.93 31.42 12.44 30.61C12.16 30.17 12.22 29.64 12.28 29.21C12.31 29.08 12.34 28.93 12.4 28.8C11.94 28.49 11.44 28.12 11.25 27.74C10.82 27 11.1 26.34 11.38 25.81C11.13 25.54 10.88 25.26 10.79 24.94C10.66 24.6 10.66 24.26 10.69 23.89C10.76 23.26 11.1 22.67 11.56 22.14C12.5 21.09 13.96 20.25 16.48 19.41C18.94 18.6 19.93 18.47 21.8 18.04C23.98 17.54 26.59 17.35 28.74 16.61C22.7 15.55 16.39 16.51 11.25 20.06L11.6 19.06ZM32.26 15.33C32.19 15.61 31.85 15.95 31.63 16.2C32.32 16.36 32.97 16.61 33.59 16.85C33.53 16.26 32.85 15.7 32.26 15.33ZM13.59 27.43C13.18 27.22 12.93 27.06 12.59 26.84C12.4 27.22 12.75 27.65 13.09 27.84C13.24 27.71 13.43 27.59 13.59 27.43ZM34.03 19.5C34.47 19.72 34.84 19.87 35.24 20.15C35.49 19.62 35.34 19.28 34.78 18.81C34.56 19.06 34.28 19.28 34.03 19.5ZM32.72 20.31C31.85 20.71 30.58 21.15 28.74 21.58C27.25 21.96 23.64 22.49 19.72 23.33C18.47 23.61 15.14 24.42 13.49 25.78C13.96 26.16 14.24 26.25 14.74 26.53C15.42 26.1 16.36 25.69 17.72 25.32C20.12 24.7 21.89 24.42 24.07 24.07C26.22 23.73 30.23 22.89 32.44 22.08C33.19 21.83 33.84 21.49 34.37 21.12C34.22 20.93 32.78 20.25 32.72 20.31ZM15.86 29.64C16.17 29.42 16.57 29.24 17.04 29.05C16.42 28.8 15.77 28.52 15.11 28.21C14.83 28.4 14.55 28.58 14.36 28.8C14.86 29.08 15.33 29.36 15.86 29.64ZM13.8 29.83C13.77 30.23 14.02 30.61 14.55 31.04C14.61 30.82 14.71 30.67 14.89 30.45C14.52 30.26 14.15 30.05 13.8 29.83ZM16.82 22.42C21.21 21.15 25.81 20.74 30.48 19.5C28.65 19 27.65 18.81 25.72 19.03C22.92 19.34 19.84 19.97 17.23 20.74C16.2 21.05 10.76 22.61 12.31 24.76C12.31 24.79 13.24 23.48 16.82 22.42ZM33.28 17.94C32.57 17.63 31.66 17.29 30.73 17.04C30.3 17.38 29.8 17.69 29.08 17.94C30.3 18.16 31.17 18.5 32.16 18.78C32.35 18.88 33.16 18.1 33.28 17.94ZM35.43 22.17C35.31 22.27 35.15 22.39 34.99 22.52C34 23.26 32.44 23.89 30.26 24.48C25.75 25.69 22.46 25.88 18.72 26.78C18.01 26.94 17.26 27.18 16.54 27.5C17.26 27.84 18.01 28.15 18.75 28.46C20.28 28.02 20.99 27.84 23.2 27.46C24.04 27.31 26.62 26.87 28.46 26.47C31.82 25.75 36.74 24.2 35.43 22.17ZM6.62 23.98C6.62 14.4 14.43 6.62 23.98 6.62C33.56 6.62 41.37 14.4 41.37 23.98C41.37 33.56 33.56 41.37 23.98 41.37C14.43 41.37 6.62 33.56 6.62 23.98Z" fill="#0057B6" fill-opacity="1.000000" fill-rule="evenodd"/>
	</g>
</svg>
